<?xml version="1.0" encoding="UTF-8"?>
<svg xmlns="http://www.w3.org/2000/svg" xmlns:xlink="http://www.w3.org/1999/xlink" width="18pt" height="18pt" viewBox="0 0 18 18" version="1.1">
<g id="surface1">
<path style=" stroke:none;fill-rule:nonzero;fill:rgb(0%,0%,0%);fill-opacity:1;" d="M 18 9.054688 C 18 4.085938 13.96875 0.0546875 9 0.0546875 C 4.03125 0.0546875 0 4.085938 0 9.054688 C 0 13.546875 3.289062 17.269531 7.59375 17.945312 L 7.59375 11.65625 L 5.308594 11.65625 L 5.308594 9.054688 L 7.59375 9.054688 L 7.59375 7.074219 C 7.59375 4.816406 8.9375 3.570312 10.992188 3.570312 C 11.976562 3.570312 13.007812 3.746094 13.007812 3.746094 L 13.007812 5.960938 L 11.871094 5.960938 C 10.753906 5.960938 10.40625 6.65625 10.40625 7.367188 L 10.40625 9.054688 L 12.902344 9.054688 L 12.503906 11.65625 L 10.40625 11.65625 L 10.40625 17.945312 C 14.710938 17.269531 18 13.546875 18 9.054688 Z M 18 9.054688 "/>
</g>
</svg>
