<?xml version="1.0" encoding="UTF-8"?>
<svg xmlns="http://www.w3.org/2000/svg" xmlns:xlink="http://www.w3.org/1999/xlink" width="18pt" height="18pt" viewBox="0 0 18 18" version="1.1">
<g id="surface1">
<path style=" stroke:none;fill-rule:nonzero;fill:rgb(0%,0%,0%);fill-opacity:1;" d="M 18 3.375 L 18 14.625 C 18 15.261719 17.511719 15.75 16.875 15.75 L 15.75 15.75 L 15.75 5.539062 L 9 10.386719 L 2.25 5.539062 L 2.25 15.75 L 1.125 15.75 C 0.488281 15.75 0 15.261719 0 14.625 L 0 3.375 C 0 3.054688 0.121094 2.773438 0.324219 2.574219 C 0.523438 2.371094 0.808594 2.25 1.125 2.25 L 1.5 2.25 L 9 7.6875 L 16.5 2.25 L 16.875 2.25 C 17.195312 2.25 17.476562 2.371094 17.675781 2.574219 C 17.878906 2.773438 18 3.054688 18 3.375 Z M 18 3.375 "/>
</g>
</svg>
