<?xml version="1.0" encoding="UTF-8"?>
<svg xmlns="http://www.w3.org/2000/svg" xmlns:xlink="http://www.w3.org/1999/xlink" width="18pt" height="18pt" viewBox="0 0 18 18" version="1.1">
<g id="surface1">
<path style=" stroke:none;fill-rule:nonzero;fill:rgb(0%,0%,0%);fill-opacity:1;" d="M 15.335938 15.339844 L 12.667969 15.339844 L 12.667969 11.164062 C 12.667969 10.167969 12.648438 8.882812 11.28125 8.882812 C 9.890625 8.882812 9.679688 9.96875 9.679688 11.089844 L 9.679688 15.339844 L 7.011719 15.339844 L 7.011719 6.75 L 9.574219 6.75 L 9.574219 7.921875 L 9.609375 7.921875 C 9.964844 7.246094 10.835938 6.535156 12.136719 6.535156 C 14.835938 6.535156 15.335938 8.3125 15.335938 10.625 Z M 4.003906 5.574219 C 3.144531 5.574219 2.457031 4.878906 2.457031 4.027344 C 2.457031 3.171875 3.144531 2.480469 4.003906 2.480469 C 4.859375 2.480469 5.550781 3.171875 5.550781 4.027344 C 5.550781 4.878906 4.855469 5.574219 4.003906 5.574219 Z M 5.339844 15.339844 L 2.667969 15.339844 L 2.667969 6.75 L 5.339844 6.75 Z M 16.667969 0 L 1.328125 0 C 0.59375 0 0 0.582031 0 1.296875 L 0 16.703125 C 0 17.421875 0.59375 18 1.328125 18 L 16.667969 18 C 17.398438 18 18 17.421875 18 16.703125 L 18 1.296875 C 18 0.582031 17.398438 0 16.667969 0 Z M 16.667969 0 "/>
</g>
</svg>
