<?xml version="1.0" encoding="UTF-8"?>
<svg xmlns="http://www.w3.org/2000/svg" xmlns:xlink="http://www.w3.org/1999/xlink" width="18pt" height="18pt" viewBox="0 0 18 18" version="1.1">
<g id="surface1">
<path style=" stroke:none;fill-rule:nonzero;fill:rgb(0%,0%,0%);fill-opacity:1;" d="M 13.105469 10.785156 C 12.882812 10.675781 11.785156 10.136719 11.582031 10.0625 C 11.375 9.988281 11.226562 9.949219 11.078125 10.171875 C 10.929688 10.398438 10.503906 10.898438 10.375 11.046875 C 10.246094 11.195312 10.113281 11.214844 9.890625 11.101562 C 9.667969 10.992188 8.949219 10.753906 8.097656 9.996094 C 7.4375 9.40625 6.988281 8.675781 6.859375 8.453125 C 6.730469 8.230469 6.84375 8.109375 6.957031 7.996094 C 7.058594 7.898438 7.179688 7.738281 7.289062 7.609375 C 7.402344 7.476562 7.4375 7.382812 7.515625 7.234375 C 7.589844 7.085938 7.550781 6.957031 7.496094 6.84375 C 7.4375 6.734375 6.992188 5.636719 6.808594 5.191406 C 6.628906 4.753906 6.441406 4.816406 6.308594 4.808594 C 6.175781 4.800781 6.027344 4.800781 5.878906 4.800781 C 5.730469 4.800781 5.488281 4.855469 5.285156 5.078125 C 5.082031 5.300781 4.503906 5.839844 4.503906 6.9375 C 4.503906 8.035156 5.304688 9.09375 5.414062 9.242188 C 5.527344 9.390625 6.988281 11.644531 9.222656 12.609375 C 9.753906 12.839844 10.167969 12.976562 10.492188 13.078125 C 11.027344 13.246094 11.511719 13.222656 11.898438 13.167969 C 12.324219 13.101562 13.214844 12.628906 13.402344 12.105469 C 13.585938 11.585938 13.585938 11.140625 13.53125 11.046875 C 13.476562 10.953125 13.328125 10.898438 13.101562 10.785156 M 9.039062 16.339844 L 9.035156 16.339844 C 4.523438 16.625 0.632812 13.199219 0.347656 8.6875 C 0.0625 4.175781 3.488281 0.285156 8 0 L 7.730469 -0.160156 L 4.925781 0.574219 L 5.671875 -2.160156 L 5.496094 -2.441406 C 9.027344 -3.285156 12.648438 -1.441406 14.046875 1.910156 C 15.441406 5.261719 14.195312 9.128906 11.109375 11.039062 C 8.019531 12.949219 4.003906 12.335938 1.628906 9.589844 C -0.75 6.847656 -0.78125 2.78125 1.550781 0 C 1.550781 -4.085938 4.878906 -7.414062 8.96875 -7.414062 C 10.949219 -7.414062 12.808594 -6.640625 14.207031 -5.238281 C 15.65625 0.132812 12.476562 5.65625 7.105469 7.105469 C 1.734375 8.550781 -3.792969 5.371094 -5.238281 0 C -5.242188 4.085938 -8.566406 7.414062 -12.652344 7.414062 M -6.34375 -6.308594 C -9.953125 -3.875 -11.257812 0.820312 -9.425781 4.769531 C -7.589844 8.714844 -3.160156 10.746094 1.027344 9.5625 C 5.214844 8.375 7.921875 4.324219 7.414062 0 C 4.121094 0 0.121094 4 0.117188 8.917969 C 0.117188 10.492188 0.527344 12.027344 1.308594 13.378906 L 0.0429688 18 L 4.773438 16.757812 C 0.144531 14.382812 -1.683594 8.703125 0.695312 4.078125 C 3.070312 -0.550781 8.75 -2.375 13.378906 0 L 13.382812 0 C 18.296875 0 22.300781 -4 22.300781 -8.917969 C 22.496094 -4.851562 19.894531 -1.171875 15.992188 0 Z M -6.34375 -6.308594 "/>
</g>
</svg>
